<svg width="91" height="80" viewBox="0 0 91 80" fill="none" xmlns="http://www.w3.org/2000/svg">
<path d="M55.6539 72.4273C65.5069 64.8896 79.7256 53.0889 85.6508 43.6512C90.0844 36.6003 91.5269 27.8649 89.5985 19.7429C85.4784 1.2416 62.663 -6.31846 48.4514 6.07998C47.6522 6.77268 46.9154 7.54059 46.1591 8.32912C45.8506 8.65092 45.5385 8.97612 45.2175 9.30105C44.8965 8.97612 44.5845 8.65088 44.2759 8.32907C43.5196 7.54059 42.7829 6.77268 41.9836 6.07998C27.772 -6.31846 4.95667 1.2416 0.836514 19.7429C-1.09188 27.8649 0.350514 36.6003 4.78422 43.6512C10.7094 53.0889 24.9281 64.8896 34.7811 72.4273C37.5265 74.5281 45.2175 80.0002 45.2175 80.0002C45.2175 80.0002 52.9085 74.5281 55.6539 72.4273Z" fill="white"/>
</svg>
