<svg width="64" height="64" viewBox="0 0 64 64" fill="none" xmlns="http://www.w3.org/2000/svg">
<path d="M37.3433 31.4433L29.8567 27.95C29.2033 27.6467 28.6667 27.9867 28.6667 28.71V35.29C28.6667 36.0133 29.2033 36.3533 29.8567 36.05L37.34 32.5567C37.9967 32.25 37.9967 31.75 37.3433 31.4433ZM32 0C14.3267 0 0 14.3267 0 32C0 49.6733 14.3267 64 32 64C49.6733 64 64 49.6733 64 32C64 14.3267 49.6733 0 32 0ZM32 45C15.62 45 15.3333 43.5233 15.3333 32C15.3333 20.4767 15.62 19 32 19C48.38 19 48.6667 20.4767 48.6667 32C48.6667 43.5233 48.38 45 32 45Z" fill="#333333"/>
</svg>
