<svg width="64" height="64" viewBox="0 0 64 64" fill="none" xmlns="http://www.w3.org/2000/svg">
<path d="M31.9914 21.3284C26.1155 21.3284 21.3204 26.1235 21.3204 31.9994C21.3204 37.8753 26.1155 42.6704 31.9914 42.6704C37.8673 42.6704 42.6624 37.8753 42.6624 31.9994C42.6624 26.1235 37.8673 21.3284 31.9914 21.3284ZM63.9964 31.9994C63.9964 27.5805 64.0365 23.2016 63.7883 18.7907C63.5401 13.6674 62.3714 9.12037 58.6249 5.37391C54.8704 1.61944 50.3315 0.458681 45.2081 0.210518C40.7892 -0.0376453 36.4103 0.00238112 31.9994 0.00238112C27.5805 0.00238112 23.2016 -0.0376453 18.7907 0.210518C13.6674 0.458681 9.12037 1.62745 5.37391 5.37391C1.61944 9.12838 0.458681 13.6674 0.210518 18.7907C-0.0376453 23.2096 0.00238112 27.5885 0.00238112 31.9994C0.00238112 36.4103 -0.0376453 40.7972 0.210518 45.2081C0.458681 50.3315 1.62745 54.8784 5.37391 58.6249C9.12838 62.3794 13.6674 63.5401 18.7907 63.7883C23.2096 64.0365 27.5885 63.9964 31.9994 63.9964C36.4183 63.9964 40.7972 64.0365 45.2081 63.7883C50.3315 63.5401 54.8784 62.3714 58.6249 58.6249C62.3794 54.8704 63.5401 50.3315 63.7883 45.2081C64.0445 40.7972 63.9964 36.4183 63.9964 31.9994ZM31.9914 48.4182C22.9054 48.4182 15.5726 41.0854 15.5726 31.9994C15.5726 22.9134 22.9054 15.5806 31.9914 15.5806C41.0774 15.5806 48.4102 22.9134 48.4102 31.9994C48.4102 41.0854 41.0774 48.4182 31.9914 48.4182ZM49.0826 18.7427C46.9612 18.7427 45.2481 17.0296 45.2481 14.9082C45.2481 12.7868 46.9612 11.0737 49.0826 11.0737C51.204 11.0737 52.9172 12.7868 52.9172 14.9082C52.9178 15.4119 52.819 15.9108 52.6266 16.3763C52.4341 16.8418 52.1516 17.2648 51.7955 17.621C51.4393 17.9772 51.0163 18.2596 50.5508 18.4521C50.0853 18.6446 49.5864 18.7433 49.0826 18.7427Z" fill="#333333"/>
</svg>
