<svg width="323" height="324" viewBox="0 0 323 324" fill="none" xmlns="http://www.w3.org/2000/svg">
<path d="M161.989 161.988C161.989 161.988 163.909 87.5482 119.18 42.8196C74.4517 -1.90889 0.0120112 0.0120182 0.0120112 0.0120182C0.0120112 0.0120182 -1.9085 74.4513 42.82 119.18C87.5486 163.909 161.989 161.988 161.989 161.988Z" fill="white"/>
<path d="M160.903 161.988C160.903 161.988 158.983 87.5482 203.711 42.8196C248.44 -1.90889 322.88 0.0120182 322.88 0.0120182C322.88 0.0120182 324.8 74.4513 280.072 119.18C235.343 163.909 160.903 161.988 160.903 161.988Z" fill="white"/>
<path d="M161.989 162.012C161.989 162.012 163.909 236.452 119.18 281.181C74.4517 325.909 0.0120112 323.988 0.0120112 323.988C0.0120112 323.988 -1.9085 249.549 42.82 204.821C87.5486 160.092 161.989 162.012 161.989 162.012Z" fill="white"/>
<path d="M160.903 162.012C160.903 162.012 158.983 236.452 203.711 281.181C248.44 325.909 322.88 323.988 322.88 323.988C322.88 323.988 324.8 249.549 280.072 204.821C235.343 160.092 160.903 162.012 160.903 162.012Z" fill="white"/>
</svg>
